<?xml version="1.0" standalone="no"?>
<!DOCTYPE svg PUBLIC "-//W3C//DTD SVG 20010904//EN"
 "http://www.w3.org/TR/2001/REC-SVG-20010904/DTD/svg10.dtd">
<svg version="1.0" xmlns="http://www.w3.org/2000/svg"
 width="640.000000pt" height="640.000000pt" viewBox="0 0 640.000000 640.000000"
 preserveAspectRatio="xMidYMid meet">

<g transform="translate(0.000000,640.000000) scale(0.100000,-0.100000)"
fill="#000000" stroke="none">
<path d="M2579 5326 c-2 -3 -16 -7 -30 -9 -89 -16 -119 -44 -771 -695 -602
-602 -639 -641 -670 -707 l-33 -70 -3 -597 c-3 -578 -2 -599 17 -636 26 -50
81 -98 128 -112 26 -8 208 -10 584 -8 l545 3 42 28 c23 15 54 46 69 69 l28 42
5 560 5 561 28 47 c18 31 44 57 75 75 l47 28 561 5 560 5 42 28 c23 15 54 46
69 69 l28 42 3 545 c2 377 0 558 -8 584 -14 49 -65 106 -115 128 -37 17 -81
19 -621 19 -319 0 -583 -2 -585 -4z"/>
<path d="M4025 3882 c-34 -18 -59 -42 -80 -76 l-30 -49 -5 -556 c-5 -518 -6
-559 -24 -594 -23 -47 -75 -91 -125 -106 -27 -8 -200 -11 -567 -11 -510 0
-531 -1 -574 -21 -59 -26 -77 -44 -106 -102 l-24 -47 2 -553 3 -553 27 -41
c15 -23 44 -54 64 -70 l37 -28 616 0 616 0 65 33 c57 30 142 111 706 675 562
562 645 649 670 702 l29 60 3 602 c2 580 2 604 -17 640 -25 49 -66 88 -113
107 -32 14 -112 16 -580 16 l-543 0 -50 -28z"/>
</g>
</svg>
